:SAMPLES-PER-SECOND 30
:FULLY-SPECIFIED
:DEGREES
629
root  13.6086 40.7015 8.49784 31.782 86.5112 33.0677
RightUpLeg  -3.79894 -10.9057 -8.80439
RightLeg  9.60432 -5.72085 1.52358
RightFoot  -1.10104 -0.0518935 0.491827
RightToes  0.000481921 0.542163 -0.142578
Spine  9.57002 -1.06908 -6.66158
Spine1  -2.75385 -3.02347 9.4893
HEad  13.9505 8.10714 -1.78047
LeftShoulder1  2.62431 -2.98855 -34.2131
LeftArm  -25.3618 41.5646 -45.1038
LeftForeArm  -179.701 -41.647 -171.52
LeftHand  -0.25398 0.0180481 5.50724
RightShoulder  1.27764 0.214362 28.3241
RightArm  -6.55173 -20.6101 47.4418
RightForeArm  170.481 45.5438 169.654
RightHand  -0.0911001 -3.4643 -4.21122
LeftUpLeg  0.759374 6.64998 4.90519
LeftLeg  3.41898 19.2192 -3.59993
LeftFoot  0.0622584 0.291664 -2.92523
LeftToes  1.06247e-005 4.65869e-005 -8.65511e-006
630
root  13.5773 40.6703 8.49919 37.1009 86.6326 38.6516
RightUpLeg  -3.80905 -11.3106 -9.0143
RightLeg  10.2438 -5.54917 1.38609
RightFoot  -1.48648 -0.0466717 0.40607
RightToes  0.000481921 0.542163 -0.142578
Spine  10.4669 -0.962029 -5.78922
Spine1  -4.39109 -2.59729 8.41616
HEad  13.0319 7.94185 -2.51066
LeftShoulder1  2.90211 -3.2633 -36.632
LeftArm  -20.8325 35.5155 -37.3298
LeftForeArm  177.952 -42.881 -170.999
LeftHand  -0.25398 0.0180481 5.50724
RightShoulder  1.30814 0.318799 28.1649
RightArm  -4.7535 -17.4577 47.4592
RightForeArm  174.096 46.4964 169.56
RightHand  -0.0578879 -3.72792 -2.29017
LeftUpLeg  0.655281 6.69977 4.76922
LeftLeg  4.04123 18.9089 -3.46523
LeftFoot  -0.127669 0.271712 -2.7607
LeftToes  1.06247e-005 4.65869e-005 -8.65511e-006
631
root  13.541 40.6464 8.52284 55.7938 87.5112 57.0861
RightUpLeg  -4.02604 -11.8521 -9.07624
RightLeg  10.6124 -6.29518 1.3938
RightFoot  -1.72458 -0.048347 0.428638
RightToes  0.000481921 0.542163 -0.142578
Spine  11.3115 -1.22081 -4.75643
Spine1  -6.23316 -2.50897 7.13363
HEad  11.6755 7.7403 -2.20218
LeftShoulder1  3.27401 -3.70136 -39.0671
LeftArm  -16.6202 27.469 -32.4643
LeftForeArm  178.751 -41.8517 -171.361
LeftHand  -0.25398 0.0180481 5.50724
RightShoulder  1.54331 0.983811 28.347
RightArm  -2.97919 -16.6004 49.0283
RightForeArm  176.799 47.3558 169.435
RightHand  -0.063287 -3.39374 -2.17817
LeftUpLeg  -0.14435 6.88782 4.81519
LeftLeg  4.60522 17.533 -3.41082
LeftFoot  -0.205349 0.26758 -2.73263
LeftToes  1.06247e-005 4.65869e-005 -8.65511e-006
632
root  13.4842 40.6432 8.55757 91.9634 88.0171 92.8925
RightUpLeg  -4.21257 -12.2013 -9.04693
RightLeg  10.7057 -7.45744 1.3788
RightFoot  -1.73931 -0.0527497 0.498818
RightToes  0.000481921 0.542163 -0.142578
Spine  11.8894 -1.48497 -4.63733
Spine1  -7.54847 -2.67587 6.92125
HEad  10.29 7.42543 -1.44898
LeftShoulder1  3.97184 -5.03845 -40.1452
LeftArm  -15.3447 20.2105 -32.3075
LeftForeArm  -178.246 -42.3506 -171.402
LeftHand  -0.25398 0.0180481 5.50724
RightShoulder  1.82607 1.83158 28.1955
RightArm  -2.47592 -14.9016 50.6904
RightForeArm  178.646 49.7345 168.678
RightHand  -0.0858116 -2.8113 -3.1517
LeftUpLeg  -0.934053 6.86473 4.85286
LeftLeg  4.70299 16.114 -3.44087
LeftFoot  -0.0142307 0.273726 -2.75995
LeftToes  1.06247e-005 4.65869e-005 -8.65511e-006
633
root  13.3907 40.6626 8.59442 127.989 87.507 128.557
RightUpLeg  -4.30019 -12.2122 -9.10149
RightLeg  10.4407 -8.86674 1.44035
RightFoot  -1.5528 -0.0525532 0.506898
RightToes  0.000481921 0.542163 -0.142578
Spine  12.443 -1.72763 -5.30995
Spine1  -8.87859 -2.99515 7.72908
HEad  8.92804 7.0747 -1.0482
LeftShoulder1  4.70921 -6.78669 -39.496
LeftArm  -15.7678 12.5126 -33.4452
LeftForeArm  -177.305 -46.4176 -170.213
LeftHand  -0.25398 0.0180481 5.50724
RightShoulder  1.98443 2.46608 27.1796
RightArm  -3.237 -9.82839 50.8558
RightForeArm  -177.925 54.2571 167.08
RightHand  -0.0569722 -4.45156 -0.267318
LeftUpLeg  -1.51469 6.4964 4.71165
LeftLeg  4.19757 15.1395 -3.5229
LeftFoot  0.529851 0.275591 -2.68156
LeftToes  1.06247e-005 4.65869e-005 -8.65511e-006
634
root  13.2435 40.684 8.62375 143.757 86.6561 144.062
RightUpLeg  -4.3239 -12.0879 -9.22132
RightLeg  9.97791 -10.1567 1.65444
RightFoot  -1.25318 -0.0470314 0.445619
RightToes  0.000481921 0.542163 -0.142578
Spine  12.7806 -1.97927 -5.37168
Spine1  -10.155 -3.1742 7.74226
HEad  8.29444 6.41161 -0.623046
LeftShoulder1  5.20571 -8.37637 -37.6523
LeftArm  -14.9101 1.06287 -32.9967
LeftForeArm  178.723 -55.356 -166.569
LeftHand  -0.25398 0.0180481 5.50724
RightShoulder  2.02959 2.98644 25.1445
RightArm  -3.76751 -0.0756137 50.5799
RightForeArm  -178.564 62.6342 162.249
RightHand  -0.118093 -7.68185 4.15271
LeftUpLeg  -1.93798 6.12524 4.54433
LeftLeg  3.51689 14.4836 -3.63428
LeftFoot  1.18016 0.271193 -2.54468
LeftToes  1.06247e-005 4.65869e-005 -8.65511e-006
635
root  12.9958 40.6854 8.63859 146.968 86.3221 147.518
RightUpLeg  -4.28385 -12.1854 -9.30694
RightLeg  9.81788 -10.4812 1.79743
RightFoot  -0.913579 -0.0370656 0.335828
RightToes  0.000481921 0.542163 -0.142578
Spine  12.6101 -1.90957 -3.9721
Spine1  -10.2062 -2.76607 5.62991
HEad  9.1688 4.85074 0.439995
LeftShoulder1  5.77958 -10.3901 -35.5186
LeftArm  -12.4688 -15.9087 -31.1729
LeftForeArm  157.5 -71.5754 -145.731
LeftHand  -0.25398 0.0180481 5.50724
RightShoulder  2.13698 3.93862 22.4721
RightArm  -3.33121 15.1077 51.1139
RightForeArm  149.165 76.335 132.319
RightHand  -0.13246 -8.41223 1.31629
LeftUpLeg  -1.9661 6.05914 4.5247
LeftLeg  3.14547 14.2111 -3.76394
LeftFoot  1.66775 0.262076 -2.42445
LeftToes  1.06247e-005 4.65869e-005 -8.65511e-006
636
root  12.6059 40.6548 8.63834 139.473 86.6669 141.075
RightUpLeg  -4.22418 -12.7378 -9.39209
RightLeg  10.4356 -9.3426 1.57096
RightFoot  -0.615599 -0.0211987 0.181059
RightToes  0.000481921 0.542163 -0.142578
Spine  12.8464 -1.27225 -1.66983
Spine1  -9.07421 -1.63645 2.20084
HEad  11.0006 2.4064 1.56937
LeftShoulder1  6.57174 -13.3925 -32.8926
LeftArm  -9.75724 -36.8049 -29.9805
LeftForeArm  55.1479 -73.2834 -40.0109
LeftHand  -0.25398 0.0180481 5.50724
RightShoulder  2.29715 5.43117 19.2762
RightArm  -1.6729 34.7954 52.3296
RightForeArm  42.2001 69.1843 29.3137
RightHand  -0.291715 -2.62838 -9.03912
LeftUpLeg  -1.45808 6.22101 4.53689
LeftLeg  3.35995 14.538 -3.79927
LeftFoot  1.94864 0.249241 -2.27215
LeftToes  1.06247e-005 4.65869e-005 -8.65511e-006
